HIERARCHY
ROOT Hips
{
	OFFSET 52.589001 -7.574514 85.789299
	CHANNELS 6 Xposition Yposition Zposition Xrotation Yrotation Zrotation
	JOINT spine
	{
		OFFSET 0.000000 -0.367607 6.392601
		CHANNELS 3 Xrotation Yrotation Zrotation
		JOINT spine1
		{
			OFFSET 0.000000 -0.000002 9.176109
			CHANNELS 3 Xrotation Yrotation Zrotation
			JOINT spine2
			{
				OFFSET 0.000000 -0.000001 8.792381
				CHANNELS 3 Xrotation Yrotation Zrotation
				JOINT Neck
				{
					OFFSET 0.000000 -1.076243 22.573700
					CHANNELS 3 Xrotation Yrotation Zrotation
					JOINT Head
					{
						OFFSET 0.000000 -0.000001 6.820114
						CHANNELS 3 Xrotation Yrotation Zrotation
						End Site
						{
							OFFSET 0.000000 5.444267 16.508499
						}
					}
				}
				JOINT RightShoulder
				{
					OFFSET -3.702209 0.515507 9.495087
					CHANNELS 3 Xrotation Yrotation Zrotation
					JOINT RightArm
					{
						OFFSET 0.000000 -0.000002 12.453705
						CHANNELS 3 Xrotation Yrotation Zrotation
						JOINT RightArmRoll
						{
							OFFSET 0.000000 -0.000001 6.286850
							CHANNELS 3 Xrotation Yrotation Zrotation
							JOINT RightForeArm
							{
								OFFSET 0.000000 -0.000003 18.311401
								CHANNELS 3 Xrotation Yrotation Zrotation
								JOINT RightForeArmRoll
								{
									OFFSET 0.000000 -0.000001 7.054825
									CHANNELS 3 Xrotation Yrotation Zrotation
									JOINT RightHand
									{
										OFFSET 0.000000 -0.000002 14.157501
										CHANNELS 3 Xrotation Yrotation Zrotation
										End Site
										{
											OFFSET 0.000000 0.000000 0.100006
										}
									}
								}
							}
						}
					}
				}
				JOINT LeftShoulder
				{
					OFFSET 3.702209 0.515507 9.495087
					CHANNELS 3 Xrotation Yrotation Zrotation
					JOINT LeftArm
					{
						OFFSET 0.000000 -0.000002 12.453705
						CHANNELS 3 Xrotation Yrotation Zrotation
						JOINT LeftArmRoll
						{
							OFFSET 0.000000 -0.000001 6.286850
							CHANNELS 3 Xrotation Yrotation Zrotation
							JOINT LeftForeArm
							{
								OFFSET 0.000000 -0.000003 18.311401
								CHANNELS 3 Xrotation Yrotation Zrotation
								JOINT LeftForeArmRoll
								{
									OFFSET 0.000000 -0.000001 7.054825
									CHANNELS 3 Xrotation Yrotation Zrotation
									JOINT LeftHand
									{
										OFFSET 0.000000 -0.000002 14.157501
										CHANNELS 3 Xrotation Yrotation Zrotation
										End Site
										{
											OFFSET 0.000000 0.000000 0.100006
										}
									}
								}
							}
						}
					}
				}
			}
		}
	}
	JOINT RightUpLeg
	{
		OFFSET -5.666161 0.871610 -1.039032
		CHANNELS 3 Xrotation Yrotation Zrotation
		JOINT RightUpLegRoll
		{
			OFFSET 0.000000 -0.000003 16.600502
			CHANNELS 3 Xrotation Yrotation Zrotation
			JOINT RightLeg
			{
				OFFSET 0.000000 0.000003 -20.557198
				CHANNELS 3 Xrotation Yrotation Zrotation
				JOINT RightLegRoll
				{
					OFFSET 0.000000 -0.000003 20.624397
					CHANNELS 3 Xrotation Yrotation Zrotation
					JOINT RightFoot
					{
						OFFSET 0.000000 -0.000003 17.166397
						CHANNELS 3 Xrotation Yrotation Zrotation
						JOINT RightToeBase
						{
							OFFSET 0.000000 -0.000002 14.350204
							CHANNELS 3 Xrotation Yrotation Zrotation
							End Site
							{
								OFFSET 0.006081 0.801060 6.949707
							}
						}
					}
				}
			}
		}
	}
	JOINT LeftUpLeg
	{
		OFFSET 5.666161 0.871610 -1.039032
		CHANNELS 3 Xrotation Yrotation Zrotation
		JOINT LeftUpLegRoll
		{
			OFFSET 0.000000 -0.000003 16.600601
			CHANNELS 3 Xrotation Yrotation Zrotation
			JOINT LeftLeg
			{
				OFFSET 0.000000 -0.000003 20.557098
				CHANNELS 3 Xrotation Yrotation Zrotation
				JOINT LeftLegRoll
				{
					OFFSET 0.000000 -0.000003 20.815102
					CHANNELS 3 Xrotation Yrotation Zrotation
					JOINT LeftFoot
					{
						OFFSET 0.000000 -0.000003 16.975693
						CHANNELS 3 Xrotation Yrotation Zrotation
						JOINT LeftToeBase
						{
							OFFSET 0.000000 -0.000002 14.350204
							CHANNELS 3 Xrotation Yrotation Zrotation
							End Site
							{
								OFFSET -0.027260 0.801060 6.949707
							}
						}
					}
				}
			}
		}
	}
}
MOTION
Frames: 9
Frame Time: 0.041667
52.125095 -7.698236 85.515709 0.530774 -0.180400 0.396214 -2.005093 0.021792 -0.066687 -0.007311 0.056876 -0.132184 1.637761 0.055289 -0.132856 6.716049 1.593555 0.476434 7.460616 -1.766051 0.509300 -16.803051 -29.056434 -19.383276 60.701831 -49.271246 94.291506 0.000001 -0.000003 0.000001 0.853853 3.976391 -0.487048 -0.000002 0.000001 -3.002148 -5.000145 -7.999960 0.000001 -19.551621 29.763021 23.355910 60.640107 51.931834 -90.714379 0.000001 0.000002 0.000004 2.215932 -7.316285 0.648006 -0.000001 -0.000001 3.000007 -5.000130 8.000240 0.000024 -1.391566 -174.051744 1.662303 -179.999991 0.000006 -1.033007 174.757548 -4.050048 -0.543302 0.000002 -0.000001 0.033091 68.861626 6.774200 2.443613 25.460997 -7.355615 0.004772 -1.626199 174.795087 0.859460 -0.000005 -0.000005 -1.040570 -6.874143 1.000835 0.573989 -0.000004 -0.000000 -0.079504 70.209099 -6.639408 -2.719577 25.457563 7.355613 -0.000973 
52.131195 -7.704303 85.511497 0.531276 -0.177917 0.400666 -2.005200 0.021441 -0.066921 -0.007541 0.056104 -0.133146 1.637531 0.054505 -0.133808 6.717505 1.622312 0.474947 7.463960 -1.816171 0.511290 -16.809874 -29.055755 -19.393243 60.703026 -49.264375 94.295133 0.000001 -0.000002 0.000001 0.854827 3.978180 -0.486998 -0.000002 0.000001 -3.002146 -5.000145 -7.999958 -0.000002 -19.547793 29.759715 23.350450 60.640906 51.927507 -90.714181 0.000000 0.000004 0.000003 2.206747 -7.316422 0.648024 0.000000 -0.000002 3.000009 -5.000130 8.000238 0.000027 -1.380149 -174.056702 1.661846 -179.999991 0.000006 -1.034004 174.774951 -4.052147 -0.542254 0.000002 -0.000000 0.033842 68.866257 6.780047 2.428223 25.460999 -7.355616 0.004772 -1.618278 174.793065 0.866571 -0.000005 -0.000005 -1.040960 -6.842893 0.988510 0.573052 -0.000004 0.000000 -0.078385 70.187242 -6.640175 -2.718820 25.457561 7.355613 -0.000974 
52.132397 -7.699356 85.496307 0.533825 -0.176328 0.403295 -2.005859 0.021217 -0.067214 -0.008861 0.055430 -0.134328 1.636211 0.053817 -0.134982 6.721869 1.643908 0.474740 7.463326 -1.850946 0.513249 -16.811428 -29.053989 -19.395490 60.702814 -49.261397 94.299169 0.000000 -0.000003 0.000003 0.855756 3.980860 -0.486944 -0.000001 0.000000 -3.002148 -5.000146 -7.999960 -0.000006 -19.544644 29.757478 23.345972 60.636971 51.927862 -90.709543 0.000000 0.000003 0.000003 2.202497 -7.315043 0.648058 -0.000000 -0.000002 3.000012 -5.000130 8.000238 0.000027 -1.374942 -174.059708 1.661667 -179.999991 0.000005 -1.034004 174.786754 -4.053216 -0.540499 0.000003 -0.000000 0.034389 68.869316 6.784165 2.417405 25.460999 -7.355616 0.004772 -1.615177 174.792068 0.872130 -0.000005 -0.000005 -1.041300 -6.821292 0.979894 0.572418 -0.000004 0.000000 -0.077593 70.172073 -6.640670 -2.718413 25.457563 7.355613 -0.000974 
52.124897 -7.678793 85.498398 0.538298 -0.175385 0.404553 -2.007030 0.021083 -0.067573 -0.011205 0.054772 -0.135787 1.633871 0.053141 -0.136434 6.729212 1.661322 0.475607 7.459250 -1.875673 0.515348 -16.808440 -29.051342 -19.391056 60.701175 -49.261735 94.303261 0.000000 -0.000002 -0.000001 0.856714 3.984428 -0.486897 -0.000001 -0.000000 -3.002148 -5.000144 -7.999961 0.000000 -19.541656 29.755992 23.341710 60.628755 51.932476 -90.701053 0.000001 0.000003 0.000004 2.202101 -7.312565 0.648100 -0.000001 -0.000003 3.000016 -5.000130 8.000239 0.000025 -1.374476 -174.061702 1.661732 -179.999991 0.000006 -1.035001 174.794882 -4.055267 -0.539109 0.000003 -0.000001 0.034809 68.871372 6.787087 2.409726 25.460999 -7.355614 0.004772 -1.615743 174.791057 0.876854 -0.000005 -0.000005 -1.041630 -6.805837 0.973692 0.571976 -0.000004 -0.000000 -0.077002 70.161178 -6.640997 -2.718121 25.457563 7.355613 -0.000973 
52.130096 -7.681015 85.506905 0.544421 -0.175019 0.404593 -2.008639 0.021029 -0.067988 -0.014429 0.054134 -0.137479 1.630641 0.052483 -0.138117 6.739132 1.674943 0.477415 7.452145 -1.891440 0.517557 -16.801413 -29.048036 -19.380959 60.698593 -49.264973 94.308015 -0.000000 -0.000002 0.000002 0.857701 3.988787 -0.486848 -0.000001 0.000001 -3.002149 -5.000144 -7.999963 -0.000004 -19.538837 29.755354 23.337788 60.616911 51.940662 -90.689387 0.000000 0.000003 0.000002 2.205118 -7.309077 0.648136 0.000000 -0.000002 3.000008 -5.000128 8.000238 0.000024 -1.378206 -174.061702 1.661987 -179.999991 0.000005 -1.035001 174.799704 -4.058278 -0.539039 0.000002 -0.000001 0.035117 68.872581 6.788965 2.404703 25.461000 -7.355615 0.004772 -1.619516 174.792081 0.880761 -0.000005 -0.000004 -1.041930 -6.795897 0.969651 0.571702 -0.000004 -0.000000 -0.076592 70.154061 -6.641205 -2.717982 25.457563 7.355613 -0.000974 
52.114395 -7.715791 85.505997 0.551914 -0.175162 0.403572 -2.010620 0.021047 -0.068451 -0.018390 0.053522 -0.139361 1.626681 0.051849 -0.139991 6.751224 1.685190 0.480026 7.442452 -1.899285 0.519846 -16.791021 -29.043990 -19.365820 60.694960 -49.270673 94.312884 0.000001 -0.000004 -0.000002 0.858721 3.993794 -0.486805 -0.000003 0.000000 -3.002152 -5.000143 -7.999962 -0.000007 -19.536359 29.755251 23.334115 60.601816 51.952079 -90.674709 0.000001 0.000003 0.000004 2.211126 -7.304678 0.648189 -0.000001 -0.000001 3.000013 -5.000129 8.000241 0.000027 -1.385556 -174.061729 1.662446 -179.999991 0.000005 -1.035001 174.801589 -4.060290 -0.538090 0.000002 -0.000000 0.035324 68.872882 6.789938 2.402167 25.460999 -7.355616 0.004772 -1.626084 174.792081 0.884014 -0.000005 -0.000004 -1.042210 -6.790893 0.967514 0.571576 -0.000004 -0.000000 -0.076341 70.150380 -6.641288 -2.717919 25.457561 7.355613 -0.000975 
52.115196 -7.705086 85.500000 0.560512 -0.175745 0.401645 -2.012902 0.021130 -0.068952 -0.022945 0.052941 -0.141390 1.622130 0.051243 -0.142014 6.765085 1.692441 0.483309 7.430620 -1.900298 0.522191 -16.777760 -29.039335 -19.346642 60.690575 -49.278394 94.317952 0.000000 -0.000003 0.000001 0.859774 3.999343 -0.486758 -0.000002 -0.000001 -3.002153 -5.000145 -7.999962 -0.000003 -19.533996 29.755709 23.330770 60.584092 51.966026 -90.657572 -0.000000 -0.000000 0.000003 2.219679 -7.299481 0.648245 -0.000000 -0.000001 3.000010 -5.000129 8.000238 0.000027 -1.395977 -174.059762 1.663030 -179.999991 0.000006 -1.035001 174.800892 -4.063265 -0.538410 0.000003 -0.000000 0.035444 68.872424 6.790156 2.401737 25.460997 -7.355616 0.004771 -1.634988 174.793106 0.886625 -0.000005 -0.000004 -1.042470 -6.790221 0.967022 0.571578 -0.000004 -0.000000 -0.076230 70.149649 -6.641299 -2.717963 25.457565 7.355613 -0.000973 
52.137196 -7.698506 85.500702 0.569937 -0.176696 0.398967 -2.015403 0.021268 -0.069484 -0.027948 0.052395 -0.143523 1.617120 0.050672 -0.144141 6.780319 1.697104 0.487130 7.417071 -1.895518 0.524565 -16.762247 -29.034373 -19.324123 60.685746 -49.287758 94.323396 0.000000 -0.000003 -0.000001 0.860856 4.005322 -0.486718 -0.000001 0.000001 -3.002154 -5.000145 -7.999960 -0.000004 -19.531841 29.756621 23.327777 60.564230 51.982104 -90.638448 -0.000001 0.000002 0.000003 2.230335 -7.293574 0.648305 -0.000000 -0.000003 3.000011 -5.000128 8.000241 0.000026 -1.408903 -174.057795 1.663783 -179.999991 0.000005 -1.035001 174.798010 -4.067233 -0.537978 0.000002 -0.000000 0.035489 68.871509 6.789571 2.403183 25.460999 -7.355616 0.004772 -1.645781 174.794144 0.888701 -0.000005 -0.000004 -1.042710 -6.793274 0.967926 0.571688 -0.000004 0.000000 -0.076236 70.151507 -6.641158 -2.718229 25.457561 7.355613 -0.000974 
52.128696 -7.703867 85.497711 0.579908 -0.177951 0.395692 -2.018059 0.021454 -0.070037 -0.033257 0.051888 -0.145719 1.611811 0.050139 -0.146330 6.796514 1.699579 0.491355 7.402253 -1.886032 0.526946 -16.745156 -29.028929 -19.299359 60.680439 -49.298383 94.328819 0.000000 -0.000003 -0.000002 0.861974 4.011608 -0.486675 -0.000002 0.000000 -3.002147 -5.000145 -7.999961 -0.000004 -19.529953 29.757693 23.325072 60.542647 51.999644 -90.617561 -0.000002 0.000002 -0.000002 2.242674 -7.287046 0.648374 -0.000001 -0.000002 3.000011 -5.000130 8.000239 0.000030 -1.423780 -174.053820 1.664614 -179.999991 0.000005 -1.035001 174.793297 -4.070196 -0.537588 0.000002 -0.000000 0.035472 68.869993 6.788414 2.406359 25.461002 -7.355616 0.004772 -1.658024 174.796166 0.890287 -0.000005 -0.000005 -1.042940 -6.799460 0.969965 0.571889 -0.000004 -0.000000 -0.076339 70.155462 -6.640946 -2.718656 25.457560 7.355614 -0.000974 
